<svg xmlns="http://www.w3.org/2000/svg" width="435.32647705078125" height="290.5849914550781" viewBox="-147.51316833496094 -60.05370330810547 435.32647705078125 290.5849914550781"><title>Neo4j Graph Visualization</title><desc>Created using Neo4j (http://www.neo4j.com/)</desc><g class="layer relationships"><g class="relationship" transform="translate(258.81332370112165 165.26603970175026) rotate(268.9012707778798)"><path class="outline" fill="#A5ABB6" stroke="none" d="M 24.018736134675446,6.953439040707552 L 24.277555179777966,5.987513214418485 A 104.31857695692949 104.31857695692949 0 0 0 31.91730406492472,7.729897216020561 L 31.731719807987506,8.712525570779917 A 105.31857695692949 105.31857695692949 0 0 1 24.018736134675446,6.953439040707552 Z M 67.4970187119684,9.28560144342326 L 67.34301141784803,8.297531732644842 A 104.31857695692949 104.31857695692949 0 0 0 75.03466132104755,6.800806372483535 L 74.3514425015472,3.8796401593623875 L 81.96458562158028,5.69349016250291 L 75.94561974704801,10.695694656645067 L 75.26240092754766,7.774528443523918 A 105.31857695692949 105.31857695692949 0 0 1 67.4970187119684,9.28560144342326"/><text text-anchor="middle" pointer-events="none" font-size="8px" fill="#000000" x="49.59787228228735" y="13.028629339972952" transform="rotate(180 49.59787228228735 10.028629339972952)" font-family="sans-serif">WROTE</text></g><g class="relationship" transform="translate(258.81332370112165 165.26603970175026) rotate(268.9012707778798)"><path class="outline" fill="#A5ABB6" stroke="none" d="M 24.018736134675446,-6.953439040707552 L 24.277555179777966,-5.987513214418485 A 104.31857695692949 104.31857695692949 0 0 1 26.511090457489225,-6.559608854543228 L 26.273682126977196,-7.531018801271941 A 105.31857695692949 105.31857695692949 0 0 0 24.018736134675446,-6.953439040707552 Z M 72.99010788214984,-8.279567178521589 L 72.78394370052779,-7.301049764156318 A 104.31857695692949 104.31857695692949 0 0 1 75.03466132104755,-6.800806372483535 L 74.3514425015472,-3.8796401593623875 L 81.96458562158028,-5.69349016250291 L 75.94561974704801,-10.695694656645067 L 75.26240092754766,-7.774528443523918 A 105.31857695692949 105.31857695692949 0 0 0 72.99010788214984,-8.279567178521589"/><text text-anchor="middle" pointer-events="none" font-size="8px" fill="#000000" x="49.59787228228733" y="-7.028629339972952" transform="rotate(180 49.59787228228733 -10.028629339972952)" font-family="sans-serif">DIRECTED</text></g><g class="relationship" transform="translate(198.6633199029842 -31.053702560518516) rotate(417.15951119256044)"><path class="outline" fill="#A5ABB6" stroke="none" d="M 24.018736134675446,6.953439040707552 L 24.277555179777966,5.987513214418485 A 106.01712456775688 106.01712456775688 0 0 0 32.337695730132594,7.813735846863963 L 32.15490346450761,8.796887405692843 A 107.01712456775688 107.01712456775688 0 0 1 24.018736134675446,6.953439040707552 Z M 67.92306520272136,9.365735440157096 L 67.7716290737536,8.377268395262192 A 106.01712456775688 106.01712456775688 0 0 0 75.88576626392388,6.808277492222221 L 75.20184957864657,3.88727458780749 L 82.81542582177114,5.699305710644277 L 76.79765517762698,10.702948031441862 L 76.11373849234967,7.7819451270271305 A 107.01712456775688 107.01712456775688 0 0 1 67.92306520272136,9.365735440157096"/><text text-anchor="middle" pointer-events="none" font-size="8px" fill="#000000" x="50.02299820467736" y="13.086491032853019" font-family="sans-serif">WROTE</text></g><g class="relationship" transform="translate(198.6633199029842 -31.053702560518516) rotate(417.15951119256044)"><path class="outline" fill="#A5ABB6" stroke="none" d="M 24.018736134675446,-6.953439040707552 L 24.277555179777966,-5.987513214418485 A 106.01712456775688 106.01712456775688 0 0 1 26.927258236515797,-6.6610040152301195 L 26.693432352353465,-7.633282502030937 A 107.01712456775688 107.01712456775688 0 0 0 24.018736134675446,-6.953439040707552 Z M 73.41877629313242,-8.376390863453409 L 73.21598659703595,-7.397168550004054 A 106.01712456775688 106.01712456775688 0 0 1 75.88576626392388,-6.808277492222221 L 75.20184957864657,-3.88727458780749 L 82.81542582177114,-5.699305710644277 L 76.79765517762698,-10.702948031441862 L 76.11373849234967,-7.7819451270271305 A 107.01712456775688 107.01712456775688 0 0 0 73.41877629313242,-8.376390863453409"/><text text-anchor="middle" pointer-events="none" font-size="8px" fill="#000000" x="50.02299820467735" y="-7.086491032853019" font-family="sans-serif">DIRECTED</text></g><g class="relationship" transform="translate(-57.09110634701044 20.55477284479048) rotate(484.22639814528065)"><path class="outline" fill="#A5ABB6" stroke="none" d="M 21.40063509461097,12.933012701892217 L 21.90063509461097,12.06698729810778 A 61.74663160424878 61.74663160424878 0 0 0 26.122644854213487,14.291618488491764 L 25.69102121175575,15.193672273624067 A 62.74663160424878 62.74663160424878 0 0 1 21.40063509461097,12.933012701892217 Z M 76.37276879984906,16.7326290847881 L 75.99667183177665,15.806048774935384 A 61.74663160424878 61.74663160424878 0 0 0 80.34588092489625,13.841683582886334 L 79.0062808862313,11.157382605646852 L 86.8325165448992,11.16333365554134 L 82.13201430978286,17.420751552538977 L 80.7924142711179,14.736450575299495 A 62.74663160424878 62.74663160424878 0 0 1 76.37276879984906,16.7326290847881"/><text text-anchor="middle" pointer-events="none" font-size="8px" fill="#000000" x="50.88469590051632" y="23.810790226452063" transform="rotate(180 50.88469590051632 20.810790226452063)" font-family="sans-serif">PRODUCED</text></g><g class="relationship" transform="translate(-57.09110634701044 20.55477284479048) rotate(484.22639814528065)"><path class="outline" fill="#A5ABB6" stroke="none" d="M 25 0.5 L 27.65553317761411 0.5 L 27.65553317761411 -0.5 L 25 -0.5 Z M 74.5461581776141 0.5 L 77.20169135522822 0.5 L 77.20169135522822 3.5 L 84.20169135522822 0 L 77.20169135522822 -3.5 L 77.20169135522822 -0.5 L 74.5461581776141 -0.5 Z"/><text text-anchor="middle" pointer-events="none" font-size="8px" fill="#000000" x="51.10084567761411" y="3" transform="rotate(180 51.10084567761411 0)" font-family="sans-serif">DIRECTED</text></g><g class="relationship" transform="translate(-57.09110634701044 20.55477284479048) rotate(484.22639814528065)"><path class="outline" fill="#A5ABB6" stroke="none" d="M 21.40063509461097,-12.933012701892217 L 21.90063509461097,-12.06698729810778 A 61.74663160424878 61.74663160424878 0 0 1 33.484904719824826,-17.249286459131504 L 33.17251446183408,-18.19924031417525 A 62.74663160424878 62.74663160424878 0 0 0 21.40063509461097,-12.933012701892217 Z M 68.72269864967582,-19.278725546978627 L 68.46852169475127,-18.31156781652031 A 61.74663160424878 61.74663160424878 0 0 1 80.34588092489625,-13.841683582886334 L 79.0062808862313,-11.157382605646852 L 86.8325165448992,-11.16333365554134 L 82.13201430978286,-17.420751552538977 L 80.7924142711179,-14.736450575299495 A 62.74663160424878 62.74663160424878 0 0 0 68.72269864967582,-19.278725546978627"/><text text-anchor="middle" pointer-events="none" font-size="8px" fill="#000000" x="50.88469590051631" y="-17.810790226452063" transform="rotate(180 50.88469590051631 -20.810790226452063)" font-family="sans-serif">WROTE</text></g><g class="relationship" transform="translate(69.33429979179223 201.531277870713) rotate(274.4397675933825)"><path class="outline" fill="#A5ABB6" stroke="none" d="M 21.40063509461097,12.933012701892217 L 21.90063509461097,12.06698729810778 A 66.94984861341948 66.94984861341948 0 0 0 28.50866948245098,15.409245742779945 L 28.107370742045994,16.325192968852157 A 67.94984861341948 67.94984861341948 0 0 1 21.40063509461097,12.933012701892217 Z M 78.97934294392893,17.805186912500183 L 78.63197228712446,16.867459005913616 A 66.94984861341948 66.94984861341948 0 0 0 85.42313538293712,13.915017001753162 L 84.07671369847074,11.234131206423804 L 91.90293918611668,11.220180703886504 L 87.21836429555896,17.48953139552564 L 85.87194261109258,14.80864560019628 A 67.94984861341948 67.94984861341948 0 0 1 78.97934294392893,17.805186912500183"/><text text-anchor="middle" pointer-events="none" font-size="8px" fill="#000000" x="53.41410312022367" y="24.508040412902915" font-family="sans-serif">PRODUCED</text></g><g class="relationship" transform="translate(69.33429979179223 201.531277870713) rotate(274.4397675933825)"><path class="outline" fill="#A5ABB6" stroke="none" d="M 25 0.5 L 35.735108323597345 0.5 L 35.735108323597345 -0.5 L 25 -0.5 Z M 71.50854582359734 0.5 L 82.24365414719469 0.5 L 82.24365414719469 3.5 L 89.24365414719469 0 L 82.24365414719469 -3.5 L 82.24365414719469 -0.5 L 71.50854582359734 -0.5 Z"/><text text-anchor="middle" pointer-events="none" font-size="8px" fill="#000000" x="53.621827073597345" y="3" font-family="sans-serif">WROTE</text></g><g class="relationship" transform="translate(69.33429979179223 201.531277870713) rotate(274.4397675933825)"><path class="outline" fill="#A5ABB6" stroke="none" d="M 21.40063509461097,-12.933012701892217 L 21.90063509461097,-12.06698729810778 A 66.94984861341948 66.94984861341948 0 0 1 30.749010579267527,-16.34276409257682 L 30.381174813659584,-17.272654865484917 A 67.94984861341948 67.94984861341948 0 0 0 21.40063509461097,-12.933012701892217 Z M 76.6543031067899,-18.618856843967407 L 76.34114944803007,-17.669154371608123 A 66.94984861341948 66.94984861341948 0 0 1 85.42313538293712,-13.915017001753162 L 84.07671369847074,-11.234131206423804 L 91.90293918611668,-11.220180703886504 L 87.21836429555896,-17.48953139552564 L 85.87194261109258,-14.80864560019628 A 67.94984861341948 67.94984861341948 0 0 0 76.6543031067899,-18.618856843967407"/><text text-anchor="middle" pointer-events="none" font-size="8px" fill="#000000" x="53.414103120223686" y="-18.508040412902915" font-family="sans-serif">DIRECTED</text></g></g><g class="layer nodes"><g class="node" transform="translate(258.81332370112165,165.26603970175026)"><circle class="outline" cx="0" cy="0" r="25" fill="#57C7E3" stroke="#23b3d7" stroke-width="2px"/><text text-anchor="middle" pointer-events="none" font-family="sans-serif" dy="1.5625" font-size="25" fill="#2A2C34"/><text text-anchor="middle" pointer-events="none" font-family="sans-serif" dy="1.5625" font-size="25" fill="#2A2C34"/><text text-anchor="middle" pointer-events="none" x="0" y="0" font-size="10px" fill="#2A2C34" font-family="sans-serif"> Andy</text><text text-anchor="middle" pointer-events="none" x="0" y="10" font-size="10px" fill="#2A2C34" font-family="sans-serif"> Wacho…</text></g><g class="node" transform="translate(256.7748463460416,58.977948275051546)"><circle class="outline" cx="0" cy="0" r="25" fill="#F79767" stroke="#f36924" stroke-width="2px"/><text text-anchor="middle" pointer-events="none" font-family="sans-serif" dy="1.5625" font-size="25" fill="#FFFFFF"/><text text-anchor="middle" pointer-events="none" font-family="sans-serif" dy="1.5625" font-size="25" fill="#FFFFFF"/><text text-anchor="middle" pointer-events="none" x="0" y="0" font-size="10px" fill="#FFFFFF" font-family="sans-serif"> Speed</text><text text-anchor="middle" pointer-events="none" x="0" y="10" font-size="10px" fill="#FFFFFF" font-family="sans-serif"> Racer</text></g><g class="node" transform="translate(198.6633199029842,-31.053702560518516)"><circle class="outline" cx="0" cy="0" r="25" fill="#57C7E3" stroke="#23b3d7" stroke-width="2px"/><text text-anchor="middle" pointer-events="none" font-family="sans-serif" dy="1.5625" font-size="25" fill="#2A2C34"/><text text-anchor="middle" pointer-events="none" font-family="sans-serif" dy="1.5625" font-size="25" fill="#2A2C34"/><text text-anchor="middle" pointer-events="none" x="0" y="0" font-size="10px" fill="#2A2C34" font-family="sans-serif"> Lana</text><text text-anchor="middle" pointer-events="none" x="0" y="10" font-size="10px" fill="#2A2C34" font-family="sans-serif"> Wacho…</text></g><g class="node" transform="translate(-57.09110634701044,20.55477284479048)"><circle class="outline" cx="0" cy="0" r="25" fill="#57C7E3" stroke="#23b3d7" stroke-width="2px"/><text text-anchor="middle" pointer-events="none" font-family="sans-serif" dy="1.5625" font-size="25" fill="#2A2C34"/><text text-anchor="middle" pointer-events="none" font-family="sans-serif" dy="1.5625" font-size="25" fill="#2A2C34"/><text text-anchor="middle" pointer-events="none" x="0" y="0" font-size="10px" fill="#2A2C34" font-family="sans-serif"> Cameron</text><text text-anchor="middle" pointer-events="none" x="0" y="10" font-size="10px" fill="#2A2C34" font-family="sans-serif"> Crowe</text></g><g class="node" transform="translate(-118.51316827340442,110.8450807607166)"><circle class="outline" cx="0" cy="0" r="25" fill="#F79767" stroke="#f36924" stroke-width="2px"/><text text-anchor="middle" pointer-events="none" font-family="sans-serif" dy="1.5625" font-size="25" fill="#FFFFFF"/><text text-anchor="middle" pointer-events="none" font-family="sans-serif" dy="1.5625" font-size="25" fill="#FFFFFF"/><text text-anchor="middle" pointer-events="none" x="0" y="0" font-size="10px" fill="#FFFFFF" font-family="sans-serif"> Jerry</text><text text-anchor="middle" pointer-events="none" x="0" y="10" font-size="10px" fill="#FFFFFF" font-family="sans-serif"> Maguire</text></g><g class="node" transform="translate(69.33429979179223,201.531277870713)"><circle class="outline" cx="0" cy="0" r="25" fill="#57C7E3" stroke="#23b3d7" stroke-width="2px"/><text text-anchor="middle" pointer-events="none" font-family="sans-serif" dy="1.5625" font-size="25" fill="#2A2C34"/><text text-anchor="middle" pointer-events="none" font-family="sans-serif" dy="1.5625" font-size="25" fill="#2A2C34"/><text text-anchor="middle" pointer-events="none" x="0" y="0" font-size="10px" fill="#2A2C34" font-family="sans-serif"> Nancy</text><text text-anchor="middle" pointer-events="none" x="0" y="10" font-size="10px" fill="#2A2C34" font-family="sans-serif"> Meyers</text></g><g class="node" transform="translate(78.17801980643584,87.63043885182594)"><circle class="outline" cx="0" cy="0" r="25" fill="#F79767" stroke="#f36924" stroke-width="2px"/><text text-anchor="middle" pointer-events="none" font-family="sans-serif" dy="1.5625" font-size="25" fill="#FFFFFF"/><text text-anchor="middle" pointer-events="none" x="0" y="5" font-size="10px" fill="#FFFFFF" font-family="sans-serif"> Somethi…</text></g></g></svg>