<svg xmlns="http://www.w3.org/2000/svg" width="580.5903930664062" height="500.00067138671875" viewBox="-192.7935333251953 -163.43002319335938 580.5903930664062 500.00067138671875"><title>Neo4j Graph Visualization</title><desc>Created using Neo4j (http://www.neo4j.com/)</desc><g class="layer relationships"><g class="relationship" transform="translate(358.79688834142934 149.96913716434992) rotate(524.1031259133546)"><path class="outline" fill="#A5ABB6" stroke="none" d="M 25 0.5 L 34.76781824845059 0.5 L 34.76781824845059 -0.5 L 25 -0.5 Z M 80.3303182484506 0.5 L 90.09813649690118 0.5 L 90.09813649690118 3.5 L 97.09813649690118 0 L 90.09813649690118 -3.5 L 90.09813649690118 -0.5 L 80.3303182484506 -0.5 Z"/><text text-anchor="middle" pointer-events="none" font-size="8px" fill="#000000" x="57.54906824845059" y="3" transform="rotate(180 57.54906824845059 0)" font-family="sans-serif">ACTED_IN</text></g><g class="relationship" transform="translate(98.70634265984047 121.07298950130478) rotate(274.8610114617031)"><path class="outline" fill="#A5ABB6" stroke="none" d="M 25 0.5 L 41.24695982927949 0.5 L 41.24695982927949 -0.5 L 25 -0.5 Z M 86.80945982927949 0.5 L 103.05641965855898 0.5 L 103.05641965855898 3.5 L 110.05641965855898 0 L 103.05641965855898 -3.5 L 103.05641965855898 -0.5 L 86.80945982927949 -0.5 Z"/><text text-anchor="middle" pointer-events="none" font-size="8px" fill="#000000" x="64.02820982927949" y="3" font-family="sans-serif">ACTED_IN</text></g><g class="relationship" transform="translate(98.70634265984047 121.07298950130478) rotate(182.45461531101068)"><path class="outline" fill="#A5ABB6" stroke="none" d="M 25 0.5 L 47.18788092025174 0.5 L 47.18788092025174 -0.5 L 25 -0.5 Z M 92.75038092025174 0.5 L 114.93826184050349 0.5 L 114.93826184050349 3.5 L 121.93826184050349 0 L 114.93826184050349 -3.5 L 114.93826184050349 -0.5 L 92.75038092025174 -0.5 Z"/><text text-anchor="middle" pointer-events="none" font-size="8px" fill="#000000" x="69.96913092025174" y="3" transform="rotate(180 69.96913092025174 0)" font-family="sans-serif">ACTED_IN</text></g><g class="relationship" transform="translate(98.70634265984047 121.07298950130478) rotate(433.98355419288464)"><path class="outline" fill="#A5ABB6" stroke="none" d="M 25 0.5 L 28.6753653627213 0.5 L 28.6753653627213 -0.5 L 25 -0.5 Z M 74.2378653627213 0.5 L 77.9132307254426 0.5 L 77.9132307254426 3.5 L 84.9132307254426 0 L 77.9132307254426 -3.5 L 77.9132307254426 -0.5 L 74.2378653627213 -0.5 Z"/><text text-anchor="middle" pointer-events="none" font-size="8px" fill="#000000" x="51.4566153627213" y="3" font-family="sans-serif">ACTED_IN</text></g><g class="relationship" transform="translate(98.70634265984047 121.07298950130478) rotate(403.23838492067796)"><path class="outline" fill="#A5ABB6" stroke="none" d="M 25 0.5 L 31.43214690004809 0.5 L 31.43214690004809 -0.5 L 25 -0.5 Z M 76.99464690004808 0.5 L 83.42679380009618 0.5 L 83.42679380009618 3.5 L 90.42679380009618 0 L 83.42679380009618 -3.5 L 83.42679380009618 -0.5 L 76.99464690004808 -0.5 Z"/><text text-anchor="middle" pointer-events="none" font-size="8px" fill="#000000" x="54.21339690004809" y="3" font-family="sans-serif">ACTED_IN</text></g><g class="relationship" transform="translate(98.70634265984047 121.07298950130478) rotate(383.60411427983354)"><path class="outline" fill="#A5ABB6" stroke="none" d="M 25 0.5 L 51.562583410076485 0.5 L 51.562583410076485 -0.5 L 25 -0.5 Z M 97.12508341007648 0.5 L 123.68766682015297 0.5 L 123.68766682015297 3.5 L 130.68766682015297 0 L 123.68766682015297 -3.5 L 123.68766682015297 -0.5 L 97.12508341007648 -0.5 Z"/><text text-anchor="middle" pointer-events="none" font-size="8px" fill="#000000" x="74.34383341007648" y="3" font-family="sans-serif">ACTED_IN</text></g><g class="relationship" transform="translate(248.87567697062835 286.16110735081236) rotate(206.3811822650971)"><path class="outline" fill="#A5ABB6" stroke="none" d="M 25 0.5 L 40.60594131540839 0.5 L 40.60594131540839 -0.5 L 25 -0.5 Z M 86.16844131540839 0.5 L 101.77438263081677 0.5 L 101.77438263081677 3.5 L 108.77438263081677 0 L 101.77438263081677 -3.5 L 101.77438263081677 -0.5 L 86.16844131540839 -0.5 Z"/><text text-anchor="middle" pointer-events="none" font-size="8px" fill="#000000" x="63.38719131540839" y="3" transform="rotate(180 63.38719131540839 0)" font-family="sans-serif">ACTED_IN</text></g><g class="relationship" transform="translate(248.87567697062835 286.16110735081236) rotate(232.4677937588205)"><path class="outline" fill="#A5ABB6" stroke="none" d="M 25 0.5 L 27.952981485663685 0.5 L 27.952981485663685 -0.5 L 25 -0.5 Z M 73.51548148566368 0.5 L 76.46846297132737 0.5 L 76.46846297132737 3.5 L 83.46846297132737 0 L 76.46846297132737 -3.5 L 76.46846297132737 -0.5 L 73.51548148566368 -0.5 Z"/><text text-anchor="middle" pointer-events="none" font-size="8px" fill="#000000" x="50.734231485663685" y="3" transform="rotate(180 50.734231485663685 0)" font-family="sans-serif">ACTED_IN</text></g><g class="relationship" transform="translate(248.87567697062835 286.16110735081236) rotate(265.82104398511)"><path class="outline" fill="#A5ABB6" stroke="none" d="M 25 0.5 L 25.22993564069499 0.5 L 25.22993564069499 -0.5 L 25 -0.5 Z M 70.79243564069499 0.5 L 71.02237128138998 0.5 L 71.02237128138998 3.5 L 78.02237128138998 0 L 71.02237128138998 -3.5 L 71.02237128138998 -0.5 L 70.79243564069499 -0.5 Z"/><text text-anchor="middle" pointer-events="none" font-size="8px" fill="#000000" x="48.01118564069499" y="3" transform="rotate(180 48.01118564069499 0)" font-family="sans-serif">ACTED_IN</text></g><g class="relationship" transform="translate(200.56748502119797 96.95869881320914) rotate(478.8670685758804)"><path class="outline" fill="#A5ABB6" stroke="none" d="M 25 0.5 L 47.80503681553016 0.5 L 47.80503681553016 -0.5 L 25 -0.5 Z M 93.36753681553016 0.5 L 116.17257363106032 0.5 L 116.17257363106032 3.5 L 123.17257363106032 0 L 116.17257363106032 -3.5 L 116.17257363106032 -0.5 L 93.36753681553016 -0.5 Z"/><text text-anchor="middle" pointer-events="none" font-size="8px" fill="#000000" x="70.58628681553016" y="3" transform="rotate(180 70.58628681553016 0)" font-family="sans-serif">ACTED_IN</text></g><g class="relationship" transform="translate(200.56748502119797 96.95869881320914) rotate(459.77213087713204)"><path class="outline" fill="#A5ABB6" stroke="none" d="M 25 0.5 L 26.07121491024813 0.5 L 26.07121491024813 -0.5 L 25 -0.5 Z M 71.63371491024813 0.5 L 72.70492982049626 0.5 L 72.70492982049626 3.5 L 79.70492982049626 0 L 72.70492982049626 -3.5 L 72.70492982049626 -0.5 L 71.63371491024813 -0.5 Z"/><text text-anchor="middle" pointer-events="none" font-size="8px" fill="#000000" x="48.85246491024813" y="3" transform="rotate(180 48.85246491024813 0)" font-family="sans-serif">ACTED_IN</text></g><g class="relationship" transform="translate(200.56748502119797 96.95869881320914) rotate(424.7356725001914)"><path class="outline" fill="#A5ABB6" stroke="none" d="M 25 0.5 L 26.631052749567132 0.5 L 26.631052749567132 -0.5 L 25 -0.5 Z M 61.96699024956713 0.5 L 63.598042999134265 0.5 L 63.598042999134265 3.5 L 70.59804299913426 0 L 63.598042999134265 -3.5 L 63.598042999134265 -0.5 L 61.96699024956713 -0.5 Z"/><text text-anchor="middle" pointer-events="none" font-size="8px" fill="#000000" x="44.29902149956713" y="3" font-family="sans-serif">ACTE…</text></g><g class="relationship" transform="translate(187.25383317084487 307.57065486013244) rotate(234.2422568982663)"><path class="outline" fill="#A5ABB6" stroke="none" d="M 25 0.5 L 25.759430585249262 0.5 L 25.759430585249262 -0.5 L 25 -0.5 Z M 66.87271183524926 0.5 L 67.63214242049852 0.5 L 67.63214242049852 3.5 L 74.63214242049852 0 L 67.63214242049852 -3.5 L 67.63214242049852 -0.5 L 66.87271183524926 -0.5 Z"/><text text-anchor="middle" pointer-events="none" font-size="8px" fill="#000000" x="46.31607121024926" y="3" transform="rotate(180 46.31607121024926 0)" font-family="sans-serif">ACTED…</text></g><g class="relationship" transform="translate(187.25383317084487 307.57065486013244) rotate(267.6237246477867)"><path class="outline" fill="#A5ABB6" stroke="none" d="M 25 0.5 L 27.478095892465234 0.5 L 27.478095892465234 -0.5 L 25 -0.5 Z M 73.04059589246523 0.5 L 75.51869178493047 0.5 L 75.51869178493047 3.5 L 82.51869178493047 0 L 75.51869178493047 -3.5 L 75.51869178493047 -0.5 L 73.04059589246523 -0.5 Z"/><text text-anchor="middle" pointer-events="none" font-size="8px" fill="#000000" x="50.259345892465234" y="3" transform="rotate(180 50.259345892465234 0)" font-family="sans-serif">ACTED_IN</text></g><g class="relationship" transform="translate(187.25383317084487 307.57065486013244) rotate(293.5500333239481)"><path class="outline" fill="#A5ABB6" stroke="none" d="M 25 0.5 L 41.437989724179744 0.5 L 41.437989724179744 -0.5 L 25 -0.5 Z M 87.00048972417974 0.5 L 103.43847944835949 0.5 L 103.43847944835949 3.5 L 110.43847944835949 0 L 103.43847944835949 -3.5 L 103.43847944835949 -0.5 L 87.00048972417974 -0.5 Z"/><text text-anchor="middle" pointer-events="none" font-size="8px" fill="#000000" x="64.21923972417974" y="3" font-family="sans-serif">ACTED_IN</text></g><g class="relationship" transform="translate(214.90554817398763 -78.87646792947567) rotate(508.0311543028049)"><path class="outline" fill="#A5ABB6" stroke="none" d="M 25 0.5 L 35.460004436586864 0.5 L 35.460004436586864 -0.5 L 25 -0.5 Z M 81.02250443658687 0.5 L 91.48250887317373 0.5 L 91.48250887317373 3.5 L 98.48250887317373 0 L 91.48250887317373 -3.5 L 91.48250887317373 -0.5 L 81.02250443658687 -0.5 Z"/><text text-anchor="middle" pointer-events="none" font-size="8px" fill="#000000" x="58.241254436586864" y="3" transform="rotate(180 58.241254436586864 0)" font-family="sans-serif">ACTED_IN</text></g><g class="relationship" transform="translate(133.33637844791872 -134.43002401603016) rotate(460.85321135057285)"><path class="outline" fill="#A5ABB6" stroke="none" d="M 25 0.5 L 35.286202185733714 0.5 L 35.286202185733714 -0.5 L 25 -0.5 Z M 80.84870218573371 0.5 L 91.13490437146743 0.5 L 91.13490437146743 3.5 L 98.13490437146743 0 L 91.13490437146743 -3.5 L 91.13490437146743 -0.5 L 80.84870218573371 -0.5 Z"/><text text-anchor="middle" pointer-events="none" font-size="8px" fill="#000000" x="58.067452185733714" y="3" transform="rotate(180 58.067452185733714 0)" font-family="sans-serif">ACTED_IN</text></g><g class="relationship" transform="translate(36.370250486086675 -109.73831673434404) rotate(412.525274865058)"><path class="outline" fill="#A5ABB6" stroke="none" d="M 25 0.5 L 34.35257972419059 0.5 L 34.35257972419059 -0.5 L 25 -0.5 Z M 79.91507972419059 0.5 L 89.26765944838118 0.5 L 89.26765944838118 3.5 L 96.26765944838118 0 L 89.26765944838118 -3.5 L 89.26765944838118 -0.5 L 79.91507972419059 -0.5 Z"/><text text-anchor="middle" pointer-events="none" font-size="8px" fill="#000000" x="57.13382972419059" y="3" font-family="sans-serif">ACTED_IN</text></g><g class="relationship" transform="translate(-101.29768033847338 8.753288014120455) rotate(423.3540472067459)"><path class="outline" fill="#A5ABB6" stroke="none" d="M 25 0.5 L 33.03137035106324 0.5 L 33.03137035106324 -0.5 L 25 -0.5 Z M 78.59387035106323 0.5 L 86.62524070212648 0.5 L 86.62524070212648 3.5 L 93.62524070212648 0 L 86.62524070212648 -3.5 L 86.62524070212648 -0.5 L 78.59387035106323 -0.5 Z"/><text text-anchor="middle" pointer-events="none" font-size="8px" fill="#000000" x="55.81262035106324" y="3" font-family="sans-serif">ACTED_IN</text></g><g class="relationship" transform="translate(-163.79353124318783 86.854101350024) rotate(373.57000788277037)"><path class="outline" fill="#A5ABB6" stroke="none" d="M 25 0.5 L 33.22823641651622 0.5 L 33.22823641651622 -0.5 L 25 -0.5 Z M 78.79073641651621 0.5 L 87.01897283303244 0.5 L 87.01897283303244 3.5 L 94.01897283303244 0 L 87.01897283303244 -3.5 L 87.01897283303244 -0.5 L 78.79073641651621 -0.5 Z"/><text text-anchor="middle" pointer-events="none" font-size="8px" fill="#000000" x="56.00948641651622" y="3" font-family="sans-serif">ACTED_IN</text></g><g class="relationship" transform="translate(-60.3419163324768 232.4633775157009) rotate(275.9401802385064)"><path class="outline" fill="#A5ABB6" stroke="none" d="M 25 0.5 L 32.87813821672389 0.5 L 32.87813821672389 -0.5 L 25 -0.5 Z M 78.4406382167239 0.5 L 86.31877643344778 0.5 L 86.31877643344778 3.5 L 93.31877643344778 0 L 86.31877643344778 -3.5 L 86.31877643344778 -0.5 L 78.4406382167239 -0.5 Z"/><text text-anchor="middle" pointer-events="none" font-size="8px" fill="#000000" x="55.65938821672389" y="3" font-family="sans-serif">ACTED_IN</text></g><g class="relationship" transform="translate(-143.49955209625955 187.1335249586653) rotate(322.8231722174404)"><path class="outline" fill="#A5ABB6" stroke="none" d="M 25 0.5 L 33.58667377060495 0.5 L 33.58667377060495 -0.5 L 25 -0.5 Z M 79.14917377060496 0.5 L 87.7358475412099 0.5 L 87.7358475412099 3.5 L 94.7358475412099 0 L 87.7358475412099 -3.5 L 87.7358475412099 -0.5 L 79.14917377060496 -0.5 Z"/><text text-anchor="middle" pointer-events="none" font-size="8px" fill="#000000" x="56.36792377060495" y="3" font-family="sans-serif">ACTED_IN</text></g></g><g class="layer nodes"><g class="node" transform="translate(358.79688834142934,149.96913716434992)"><circle class="outline" cx="0" cy="0" r="25" fill="#57C7E3" stroke="#23b3d7" stroke-width="2px"/><text text-anchor="middle" pointer-events="none" font-family="sans-serif" dy="1.5625" font-size="25" fill="#2A2C34"/><text text-anchor="middle" pointer-events="none" font-family="sans-serif" dy="1.5625" font-size="25" fill="#2A2C34"/><text text-anchor="middle" pointer-events="none" x="0" y="0" font-size="10px" fill="#2A2C34" font-family="sans-serif"> Emil</text><text text-anchor="middle" pointer-events="none" x="0" y="10" font-size="10px" fill="#2A2C34" font-family="sans-serif"> Eifrem</text></g><g class="node" transform="translate(241.36824188533797,183.4126406815685)"><circle class="outline" cx="0" cy="0" r="25" fill="#F79767" stroke="#f36924" stroke-width="2px"/><text text-anchor="middle" pointer-events="none" font-family="sans-serif" dy="1.5625" font-size="25" fill="#FFFFFF"/><text text-anchor="middle" pointer-events="none" font-family="sans-serif" dy="1.5625" font-size="25" fill="#FFFFFF"/><text text-anchor="middle" pointer-events="none" x="0" y="0" font-size="10px" fill="#FFFFFF" font-family="sans-serif"> The</text><text text-anchor="middle" pointer-events="none" x="0" y="10" font-size="10px" fill="#FFFFFF" font-family="sans-serif"> Matrix</text></g><g class="node" transform="translate(98.70634265984047,121.07298950130478)"><circle class="outline" cx="0" cy="0" r="25" fill="#57C7E3" stroke="#23b3d7" stroke-width="2px"/><text text-anchor="middle" pointer-events="none" font-family="sans-serif" dy="1.5625" font-size="25" fill="#2A2C34"/><text text-anchor="middle" pointer-events="none" font-family="sans-serif" dy="1.5625" font-size="25" fill="#2A2C34"/><text text-anchor="middle" pointer-events="none" x="0" y="0" font-size="10px" fill="#2A2C34" font-family="sans-serif"> Hugo</text><text text-anchor="middle" pointer-events="none" x="0" y="10" font-size="10px" fill="#2A2C34" font-family="sans-serif"> Weaving</text></g><g class="node" transform="translate(248.87567697062835,286.16110735081236)"><circle class="outline" cx="0" cy="0" r="25" fill="#57C7E3" stroke="#23b3d7" stroke-width="2px"/><text text-anchor="middle" pointer-events="none" font-family="sans-serif" dy="1.5625" font-size="25" fill="#2A2C34"/><text text-anchor="middle" pointer-events="none" font-family="sans-serif" dy="1.5625" font-size="25" fill="#2A2C34"/><text text-anchor="middle" pointer-events="none" x="0" y="0" font-size="10px" fill="#2A2C34" font-family="sans-serif"> Laurence</text><text text-anchor="middle" pointer-events="none" x="0" y="10" font-size="10px" fill="#2A2C34" font-family="sans-serif"> Fishbur…</text></g><g class="node" transform="translate(200.56748502119797,96.95869881320914)"><circle class="outline" cx="0" cy="0" r="25" fill="#57C7E3" stroke="#23b3d7" stroke-width="2px"/><text text-anchor="middle" pointer-events="none" font-family="sans-serif" dy="1.5625" font-size="25" fill="#2A2C34"/><text text-anchor="middle" pointer-events="none" x="0" y="5" font-size="10px" fill="#2A2C34" font-family="sans-serif"> Carrie-A…</text></g><g class="node" transform="translate(187.25383317084487,307.57065486013244)"><circle class="outline" cx="0" cy="0" r="25" fill="#57C7E3" stroke="#23b3d7" stroke-width="2px"/><text text-anchor="middle" pointer-events="none" font-family="sans-serif" dy="1.5625" font-size="25" fill="#2A2C34"/><text text-anchor="middle" pointer-events="none" font-family="sans-serif" dy="1.5625" font-size="25" fill="#2A2C34"/><text text-anchor="middle" pointer-events="none" x="0" y="0" font-size="10px" fill="#2A2C34" font-family="sans-serif"> Keanu</text><text text-anchor="middle" pointer-events="none" x="0" y="10" font-size="10px" fill="#2A2C34" font-family="sans-serif"> Reeves</text></g><g class="node" transform="translate(182.79589960749234,200.14442011513353)"><circle class="outline" cx="0" cy="0" r="25" fill="#F79767" stroke="#f36924" stroke-width="2px"/><text text-anchor="middle" pointer-events="none" font-family="sans-serif" dy="1.5625" font-size="25" fill="#FFFFFF"/><text text-anchor="middle" pointer-events="none" font-family="sans-serif" dy="1.5625" font-size="25" fill="#FFFFFF"/><text text-anchor="middle" pointer-events="none" font-family="sans-serif" dy="1.5625" font-size="25" fill="#FFFFFF"/><text text-anchor="middle" pointer-events="none" x="0" y="-5" font-size="10px" fill="#FFFFFF" font-family="sans-serif"> The</text><text text-anchor="middle" pointer-events="none" x="0" y="5" font-size="10px" fill="#FFFFFF" font-family="sans-serif"> Matrix</text><text text-anchor="middle" pointer-events="none" x="0" y="15" font-size="10px" fill="#FFFFFF" font-family="sans-serif"> Reloa…</text></g><g class="node" transform="translate(129.03286032910094,226.71966770067087)"><circle class="outline" cx="0" cy="0" r="25" fill="#F79767" stroke="#f36924" stroke-width="2px"/><text text-anchor="middle" pointer-events="none" font-family="sans-serif" dy="1.5625" font-size="25" fill="#FFFFFF"/><text text-anchor="middle" pointer-events="none" font-family="sans-serif" dy="1.5625" font-size="25" fill="#FFFFFF"/><text text-anchor="middle" pointer-events="none" font-family="sans-serif" dy="1.5625" font-size="25" fill="#FFFFFF"/><text text-anchor="middle" pointer-events="none" x="0" y="-5" font-size="10px" fill="#FFFFFF" font-family="sans-serif"> The</text><text text-anchor="middle" pointer-events="none" x="0" y="5" font-size="10px" fill="#FFFFFF" font-family="sans-serif"> Matrix</text><text text-anchor="middle" pointer-events="none" x="0" y="15" font-size="10px" fill="#FFFFFF" font-family="sans-serif"> Revol…</text></g><g class="node" transform="translate(214.90554817398763,-78.87646792947567)"><circle class="outline" cx="0" cy="0" r="25" fill="#57C7E3" stroke="#23b3d7" stroke-width="2px"/><text text-anchor="middle" pointer-events="none" font-family="sans-serif" dy="1.5625" font-size="25" fill="#2A2C34"/><text text-anchor="middle" pointer-events="none" font-family="sans-serif" dy="1.5625" font-size="25" fill="#2A2C34"/><text text-anchor="middle" pointer-events="none" x="0" y="0" font-size="10px" fill="#2A2C34" font-family="sans-serif"> Tom</text><text text-anchor="middle" pointer-events="none" x="0" y="10" font-size="10px" fill="#2A2C34" font-family="sans-serif"> Hanks</text></g><g class="node" transform="translate(110.1508767198565,-13.497657859618366)"><circle class="outline" cx="0" cy="0" r="25" fill="#F79767" stroke="#f36924" stroke-width="2px"/><text text-anchor="middle" pointer-events="none" font-family="sans-serif" dy="1.5625" font-size="25" fill="#FFFFFF"/><text text-anchor="middle" pointer-events="none" font-family="sans-serif" dy="1.5625" font-size="25" fill="#FFFFFF"/><text text-anchor="middle" pointer-events="none" x="0" y="0" font-size="10px" fill="#FFFFFF" font-family="sans-serif"> Cloud</text><text text-anchor="middle" pointer-events="none" x="0" y="10" font-size="10px" fill="#FFFFFF" font-family="sans-serif"> Atlas</text></g><g class="node" transform="translate(133.33637844791872,-134.43002401603016)"><circle class="outline" cx="0" cy="0" r="25" fill="#57C7E3" stroke="#23b3d7" stroke-width="2px"/><text text-anchor="middle" pointer-events="none" font-family="sans-serif" dy="1.5625" font-size="25" fill="#2A2C34"/><text text-anchor="middle" pointer-events="none" font-family="sans-serif" dy="1.5625" font-size="25" fill="#2A2C34"/><text text-anchor="middle" pointer-events="none" x="0" y="0" font-size="10px" fill="#2A2C34" font-family="sans-serif"> Jim</text><text text-anchor="middle" pointer-events="none" x="0" y="10" font-size="10px" fill="#2A2C34" font-family="sans-serif"> Broadb…</text></g><g class="node" transform="translate(36.370250486086675,-109.73831673434404)"><circle class="outline" cx="0" cy="0" r="25" fill="#57C7E3" stroke="#23b3d7" stroke-width="2px"/><text text-anchor="middle" pointer-events="none" font-family="sans-serif" dy="1.5625" font-size="25" fill="#2A2C34"/><text text-anchor="middle" pointer-events="none" font-family="sans-serif" dy="1.5625" font-size="25" fill="#2A2C34"/><text text-anchor="middle" pointer-events="none" x="0" y="0" font-size="10px" fill="#2A2C34" font-family="sans-serif"> Halle</text><text text-anchor="middle" pointer-events="none" x="0" y="10" font-size="10px" fill="#2A2C34" font-family="sans-serif"> Berry</text></g><g class="node" transform="translate(-101.29768033847338,8.753288014120455)"><circle class="outline" cx="0" cy="0" r="25" fill="#57C7E3" stroke="#23b3d7" stroke-width="2px"/><text text-anchor="middle" pointer-events="none" font-family="sans-serif" dy="1.5625" font-size="25" fill="#2A2C34"/><text text-anchor="middle" pointer-events="none" x="0" y="5" font-size="10px" fill="#2A2C34" font-family="sans-serif"> Ben Miles</text></g><g class="node" transform="translate(-48.097097390167356,114.7799153564907)"><circle class="outline" cx="0" cy="0" r="25" fill="#F79767" stroke="#f36924" stroke-width="2px"/><text text-anchor="middle" pointer-events="none" font-family="sans-serif" dy="1.5625" font-size="25" fill="#FFFFFF"/><text text-anchor="middle" pointer-events="none" font-family="sans-serif" dy="1.5625" font-size="25" fill="#FFFFFF"/><text text-anchor="middle" pointer-events="none" x="0" y="0" font-size="10px" fill="#FFFFFF" font-family="sans-serif"> V for</text><text text-anchor="middle" pointer-events="none" x="0" y="10" font-size="10px" fill="#FFFFFF" font-family="sans-serif"> Vendetta</text></g><g class="node" transform="translate(-163.79353124318783,86.854101350024)"><circle class="outline" cx="0" cy="0" r="25" fill="#57C7E3" stroke="#23b3d7" stroke-width="2px"/><text text-anchor="middle" pointer-events="none" font-family="sans-serif" dy="1.5625" font-size="25" fill="#2A2C34"/><text text-anchor="middle" pointer-events="none" font-family="sans-serif" dy="1.5625" font-size="25" fill="#2A2C34"/><text text-anchor="middle" pointer-events="none" x="0" y="0" font-size="10px" fill="#2A2C34" font-family="sans-serif"> Natalie</text><text text-anchor="middle" pointer-events="none" x="0" y="10" font-size="10px" fill="#2A2C34" font-family="sans-serif"> Portman</text></g><g class="node" transform="translate(-60.3419163324768,232.4633775157009)"><circle class="outline" cx="0" cy="0" r="25" fill="#57C7E3" stroke="#23b3d7" stroke-width="2px"/><text text-anchor="middle" pointer-events="none" font-family="sans-serif" dy="1.5625" font-size="25" fill="#2A2C34"/><text text-anchor="middle" pointer-events="none" x="0" y="5" font-size="10px" fill="#2A2C34" font-family="sans-serif"> John Hurt</text></g><g class="node" transform="translate(-143.49955209625955,187.1335249586653)"><circle class="outline" cx="0" cy="0" r="25" fill="#57C7E3" stroke="#23b3d7" stroke-width="2px"/><text text-anchor="middle" pointer-events="none" font-family="sans-serif" dy="1.5625" font-size="25" fill="#2A2C34"/><text text-anchor="middle" pointer-events="none" font-family="sans-serif" dy="1.5625" font-size="25" fill="#2A2C34"/><text text-anchor="middle" pointer-events="none" x="0" y="0" font-size="10px" fill="#2A2C34" font-family="sans-serif"> Stephen</text><text text-anchor="middle" pointer-events="none" x="0" y="10" font-size="10px" fill="#2A2C34" font-family="sans-serif"> Rea</text></g></g></svg>