<svg xmlns="http://www.w3.org/2000/svg" width="500.49273681640625" height="282.1825866699219" viewBox="-144.71310424804688 -53.706390380859375 500.49273681640625 282.1825866699219"><title>Neo4j Graph Visualization</title><desc>Created using Neo4j (http://www.neo4j.com/)</desc><g class="layer relationships"><g class="relationship" transform="translate(132.9438734836925 46.4436817742607) rotate(484.30717592281303)"><path class="outline" fill="#A5ABB6" stroke="none" d="M 24.018736134675446,6.953439040707552 L 24.277555179777966,5.987513214418485 A 121.40899475775731 121.40899475775731 0 0 0 36.16424351713722,8.542296797083779 L 36.00333063097355,9.529265410093572 A 122.40899475775731 122.40899475775731 0 0 1 24.018736134675446,6.953439040707552 Z M 71.79078169050531,10.06230979225731 L 71.6593349250735,9.070986561490713 A 121.40899475775731 121.40899475775731 0 0 0 83.61683897583367,6.871355760692328 L 82.92703035592797,3.9517386508808747 L 90.54424700204468,5.748405165880915 L 84.53658380237462,10.764178573774265 L 83.84677518246892,7.844561463962812 A 122.40899475775731 122.40899475775731 0 0 1 71.79078169050531,10.06230979225731"/><text text-anchor="middle" pointer-events="none" font-size="8px" fill="#000000" x="53.884915227314764" y="13.61090370649572" transform="rotate(180 53.884915227314764 10.61090370649572)" font-family="sans-serif">WROTE</text></g><g class="relationship" transform="translate(132.9438734836925 46.4436817742607) rotate(210.30097465555536)"><path class="outline" fill="#A5ABB6" stroke="none" d="M 25 0.5 L 37.45802864951864 0.5 L 37.45802864951864 -0.5 L 25 -0.5 Z M 84.34865364951864 0.5 L 96.80668229903728 0.5 L 96.80668229903728 3.5 L 103.80668229903728 0 L 96.80668229903728 -3.5 L 96.80668229903728 -0.5 L 84.34865364951864 -0.5 Z"/><text text-anchor="middle" pointer-events="none" font-size="8px" fill="#000000" x="60.90334114951864" y="3" transform="rotate(180 60.90334114951864 0)" font-family="sans-serif">DIRECTED</text></g><g class="relationship" transform="translate(132.9438734836925 46.4436817742607) rotate(484.30717592281303)"><path class="outline" fill="#A5ABB6" stroke="none" d="M 24.018736134675446,-6.953439040707552 L 24.277555179777966,-5.987513214418485 A 121.40899475775731 121.40899475775731 0 0 1 28.34478053409353,-7.002401804150509 L 28.119461686916463,-7.976686884148549 A 122.40899475775731 122.40899475775731 0 0 0 24.018736134675446,-6.953439040707552 Z M 79.71739350530554,-8.745224091263623 L 79.52119159806011,-7.76466057389554 A 121.40899475775731 121.40899475775731 0 0 1 83.61683897583367,-6.871355760692328 L 82.92703035592797,-3.9517386508808747 L 90.54424700204468,-5.748405165880915 L 84.53658380237462,-10.764178573774265 L 83.84677518246892,-7.844561463962812 A 122.40899475775731 122.40899475775731 0 0 0 79.71739350530554,-8.745224091263623"/><text text-anchor="middle" pointer-events="none" font-size="8px" fill="#000000" x="53.88491522731474" y="-7.610903706495719" transform="rotate(180 53.88491522731474 -10.61090370649572)" font-family="sans-serif">PRODUCED</text></g><g class="relationship" transform="translate(132.9438734836925 46.4436817742607) rotate(314.78106596060144)"><path class="outline" fill="#A5ABB6" stroke="none" d="M 25 0.5 L 27.174240084838416 0.5 L 27.174240084838416 -0.5 L 25 -0.5 Z M 66.06486508483842 0.5 L 68.23910516967683 0.5 L 68.23910516967683 3.5 L 75.23910516967683 0 L 68.23910516967683 -3.5 L 68.23910516967683 -0.5 L 66.06486508483842 -0.5 Z"/><text text-anchor="middle" pointer-events="none" font-size="8px" fill="#000000" x="46.61955258483842" y="3" font-family="sans-serif">DIREC…</text></g><g class="relationship" transform="translate(132.9438734836925 46.4436817742607) rotate(363.93798470541424)"><path class="outline" fill="#A5ABB6" stroke="none" d="M 25 0.5 L 70.20193262833557 0.5 L 70.20193262833557 -0.5 L 25 -0.5 Z M 117.09255762833557 0.5 L 162.29449025667114 0.5 L 162.29449025667114 3.5 L 169.29449025667114 0 L 162.29449025667114 -3.5 L 162.29449025667114 -0.5 L 117.09255762833557 -0.5 Z"/><text text-anchor="middle" pointer-events="none" font-size="8px" fill="#000000" x="93.64724512833557" y="3" font-family="sans-serif">DIRECTED</text></g><g class="relationship" transform="translate(132.9438734836925 46.4436817742607) rotate(428.683265829767)"><path class="outline" fill="#A5ABB6" stroke="none" d="M 25 0.5 L 50.48225662902672 0.5 L 50.48225662902672 -0.5 L 25 -0.5 Z M 97.37288162902672 0.5 L 122.85513825805344 0.5 L 122.85513825805344 3.5 L 129.85513825805344 0 L 122.85513825805344 -3.5 L 122.85513825805344 -0.5 L 97.37288162902672 -0.5 Z"/><text text-anchor="middle" pointer-events="none" font-size="8px" fill="#000000" x="73.92756912902672" y="3" font-family="sans-serif">DIRECTED</text></g><g class="relationship" transform="translate(178.57318446938663 85.21589977604032) rotate(513.0503500671898)"><path class="outline" fill="#A5ABB6" stroke="none" d="M 24.018736134675446,6.953439040707552 L 24.277555179777966,5.987513214418485 A 139.18008498468404 139.18008498468404 0 0 0 40.61269748346301,9.330518068914813 L 40.47124539000075,10.320463171056929 A 140.18008498468404 140.18008498468404 0 0 1 24.018736134675446,6.953439040707552 Z M 76.2712536699183,10.817155998279219 L 76.15731992677024,9.823667647984024 A 139.18008498468404 139.18008498468404 0 0 0 92.57891922033288,6.935133040179073 L 91.88315357215663,4.01692979797371 L 99.50402106017475,5.798047068135389 L 93.50660675123453,10.826070696452888 L 92.81084110305828,7.907867454247526 A 140.18008498468404 140.18008498468404 0 0 1 76.2712536699183,10.817155998279219"/><text text-anchor="middle" pointer-events="none" font-size="8px" fill="#000000" x="58.36226315991076" y="14.21651799622586" transform="rotate(180 58.36226315991076 11.21651799622586)" font-family="sans-serif">WROTE</text></g><g class="relationship" transform="translate(178.57318446938663 85.21589977604032) rotate(513.0503500671898)"><path class="outline" fill="#A5ABB6" stroke="none" d="M 24.018736134675446,-6.953439040707552 L 24.277555179777966,-5.987513214418485 A 139.18008498468404 139.18008498468404 0 0 1 32.75426496207199,-7.976880319695084 L 32.556350534057664,-8.957099621271908 A 140.18008498468404 140.18008498468404 0 0 0 24.018736134675446,-6.953439040707552 Z M 84.22092562520211,-9.673899004909316 L 84.05028145877138,-8.688566285233804 A 139.18008498468404 139.18008498468404 0 0 1 92.57891922033288,-6.935133040179073 L 91.88315357215663,-4.01692979797371 L 99.50402106017475,-5.798047068135389 L 93.50660675123453,-10.826070696452888 L 92.81084110305828,-7.907867454247526 A 140.18008498468404 140.18008498468404 0 0 0 84.22092562520211,-9.673899004909316"/><text text-anchor="middle" pointer-events="none" font-size="8px" fill="#000000" x="58.36226315991071" y="-8.21651799622586" transform="rotate(180 58.36226315991071 -11.21651799622586)" font-family="sans-serif">PRODUCED</text></g><g class="relationship" transform="translate(178.57318446938663 85.21589977604032) rotate(213.48753982493827)"><path class="outline" fill="#A5ABB6" stroke="none" d="M 25 0.5 L 67.0824003329816 0.5 L 67.0824003329816 -0.5 L 25 -0.5 Z M 113.9730253329816 0.5 L 156.0554256659632 0.5 L 156.0554256659632 3.5 L 163.0554256659632 0 L 156.0554256659632 -3.5 L 156.0554256659632 -0.5 L 113.9730253329816 -0.5 Z"/><text text-anchor="middle" pointer-events="none" font-size="8px" fill="#000000" x="90.5277128329816" y="3" transform="rotate(180 90.5277128329816 0)" font-family="sans-serif">DIRECTED</text></g><g class="relationship" transform="translate(178.57318446938663 85.21589977604032) rotate(282.80265243509257)"><path class="outline" fill="#A5ABB6" stroke="none" d="M 25 0.5 L 29.41705224276558 0.5 L 29.41705224276558 -0.5 L 25 -0.5 Z M 76.30767724276558 0.5 L 80.72472948553116 0.5 L 80.72472948553116 3.5 L 87.72472948553116 0 L 80.72472948553116 -3.5 L 80.72472948553116 -0.5 L 76.30767724276558 -0.5 Z"/><text text-anchor="middle" pointer-events="none" font-size="8px" fill="#000000" x="52.86236474276558" y="3" font-family="sans-serif">DIRECTED</text></g><g class="relationship" transform="translate(178.57318446938663 85.21589977604032) rotate(350.2641988510072)"><path class="outline" fill="#A5ABB6" stroke="none" d="M 25 0.5 L 48.240739194924345 0.5 L 48.240739194924345 -0.5 L 25 -0.5 Z M 95.13136419492434 0.5 L 118.37210338984869 0.5 L 118.37210338984869 3.5 L 125.37210338984869 0 L 118.37210338984869 -3.5 L 118.37210338984869 -0.5 L 95.13136419492434 -0.5 Z"/><text text-anchor="middle" pointer-events="none" font-size="8px" fill="#000000" x="71.68605169492434" y="3" font-family="sans-serif">DIRECTED</text></g><g class="relationship" transform="translate(178.57318446938663 85.21589977604032) rotate(444.2274127761085)"><path class="outline" fill="#A5ABB6" stroke="none" d="M 25 0.5 L 26.067780120481082 0.5 L 26.067780120481082 -0.5 L 25 -0.5 Z M 72.95840512048107 0.5 L 74.02618524096216 0.5 L 74.02618524096216 3.5 L 81.02618524096216 0 L 74.02618524096216 -3.5 L 74.02618524096216 -0.5 L 72.95840512048107 -0.5 Z"/><text text-anchor="middle" pointer-events="none" font-size="8px" fill="#000000" x="49.51309262048108" y="3" font-family="sans-serif">DIRECTED</text></g><g class="relationship" transform="translate(-115.71309726502332 29.52819208653929) rotate(340.722397126446)"><path class="outline" fill="#A5ABB6" stroke="none" d="M 25 0.5 L 45.86037669143683 0.5 L 45.86037669143683 -0.5 L 25 -0.5 Z M 92.75100169143683 0.5 L 113.61137838287365 0.5 L 113.61137838287365 3.5 L 120.61137838287365 0 L 113.61137838287365 -3.5 L 113.61137838287365 -0.5 L 92.75100169143683 -0.5 Z"/><text text-anchor="middle" pointer-events="none" font-size="8px" fill="#000000" x="69.30568919143683" y="3" font-family="sans-serif">DIRECTED</text></g><g class="relationship" transform="translate(-76.49877306331986 199.47620373013672) rotate(338.10829985836074)"><path class="outline" fill="#A5ABB6" stroke="none" d="M 25 0.5 L 51.02514087711626 0.5 L 51.02514087711626 -0.5 L 25 -0.5 Z M 97.91576587711626 0.5 L 123.94090675423251 0.5 L 123.94090675423251 3.5 L 130.94090675423251 0 L 123.94090675423251 -3.5 L 123.94090675423251 -0.5 L 97.91576587711626 -0.5 Z"/><text text-anchor="middle" pointer-events="none" font-size="8px" fill="#000000" x="74.47045337711626" y="3" font-family="sans-serif">DIRECTED</text></g></g><g class="layer nodes"><g class="node" transform="translate(132.9438734836925,46.4436817742607)"><circle class="outline" cx="0" cy="0" r="25" fill="#57C7E3" stroke="#23b3d7" stroke-width="2px"/><text text-anchor="middle" pointer-events="none" font-family="sans-serif" dy="1.5625" font-size="25" fill="#2A2C34"/><text text-anchor="middle" pointer-events="none" font-family="sans-serif" dy="1.5625" font-size="25" fill="#2A2C34"/><text text-anchor="middle" pointer-events="none" x="0" y="0" font-size="10px" fill="#2A2C34" font-family="sans-serif"> Lana</text><text text-anchor="middle" pointer-events="none" x="0" y="10" font-size="10px" fill="#2A2C34" font-family="sans-serif"> Wacho…</text></g><g class="node" transform="translate(189.23732911137546,190.70442036385387)"><circle class="outline" cx="0" cy="0" r="25" fill="#F79767" stroke="#f36924" stroke-width="2px"/><text text-anchor="middle" pointer-events="none" font-family="sans-serif" dy="1.5625" font-size="25" fill="#FFFFFF"/><text text-anchor="middle" pointer-events="none" font-family="sans-serif" dy="1.5625" font-size="25" fill="#FFFFFF"/><text text-anchor="middle" pointer-events="none" x="0" y="0" font-size="10px" fill="#FFFFFF" font-family="sans-serif"> The</text><text text-anchor="middle" pointer-events="none" x="0" y="10" font-size="10px" fill="#FFFFFF" font-family="sans-serif"> Matrix</text></g><g class="node" transform="translate(178.57318446938663,85.21589977604032)"><circle class="outline" cx="0" cy="0" r="25" fill="#57C7E3" stroke="#23b3d7" stroke-width="2px"/><text text-anchor="middle" pointer-events="none" font-family="sans-serif" dy="1.5625" font-size="25" fill="#2A2C34"/><text text-anchor="middle" pointer-events="none" font-family="sans-serif" dy="1.5625" font-size="25" fill="#2A2C34"/><text text-anchor="middle" pointer-events="none" x="0" y="0" font-size="10px" fill="#2A2C34" font-family="sans-serif"> Andy</text><text text-anchor="middle" pointer-events="none" x="0" y="10" font-size="10px" fill="#2A2C34" font-family="sans-serif"> Wacho…</text></g><g class="node" transform="translate(326.7796282893588,59.78718592486851)"><circle class="outline" cx="0" cy="0" r="25" fill="#F79767" stroke="#f36924" stroke-width="2px"/><text text-anchor="middle" pointer-events="none" font-family="sans-serif" dy="1.5625" font-size="25" fill="#FFFFFF"/><text text-anchor="middle" pointer-events="none" font-family="sans-serif" dy="1.5625" font-size="25" fill="#FFFFFF"/><text text-anchor="middle" pointer-events="none" font-family="sans-serif" dy="1.5625" font-size="25" fill="#FFFFFF"/><text text-anchor="middle" pointer-events="none" x="0" y="-5" font-size="10px" fill="#FFFFFF" font-family="sans-serif"> The</text><text text-anchor="middle" pointer-events="none" x="0" y="5" font-size="10px" fill="#FFFFFF" font-family="sans-serif"> Matrix</text><text text-anchor="middle" pointer-events="none" x="0" y="15" font-size="10px" fill="#FFFFFF" font-family="sans-serif"> Reloa…</text></g><g class="node" transform="translate(203.55226767060026,-24.706391139010314)"><circle class="outline" cx="0" cy="0" r="25" fill="#F79767" stroke="#f36924" stroke-width="2px"/><text text-anchor="middle" pointer-events="none" font-family="sans-serif" dy="1.5625" font-size="25" fill="#FFFFFF"/><text text-anchor="middle" pointer-events="none" font-family="sans-serif" dy="1.5625" font-size="25" fill="#FFFFFF"/><text text-anchor="middle" pointer-events="none" font-family="sans-serif" dy="1.5625" font-size="25" fill="#FFFFFF"/><text text-anchor="middle" pointer-events="none" x="0" y="-5" font-size="10px" fill="#FFFFFF" font-family="sans-serif"> The</text><text text-anchor="middle" pointer-events="none" x="0" y="5" font-size="10px" fill="#FFFFFF" font-family="sans-serif"> Matrix</text><text text-anchor="middle" pointer-events="none" x="0" y="15" font-size="10px" fill="#FFFFFF" font-family="sans-serif"> Revol…</text></g><g class="node" transform="translate(-115.71309726502332,29.52819208653929)"><circle class="outline" cx="0" cy="0" r="25" fill="#57C7E3" stroke="#23b3d7" stroke-width="2px"/><text text-anchor="middle" pointer-events="none" font-family="sans-serif" dy="1.5625" font-size="25" fill="#2A2C34"/><text text-anchor="middle" pointer-events="none" font-family="sans-serif" dy="1.5625" font-size="25" fill="#2A2C34"/><text text-anchor="middle" pointer-events="none" x="0" y="0" font-size="10px" fill="#2A2C34" font-family="sans-serif"> Tom</text><text text-anchor="middle" pointer-events="none" x="0" y="10" font-size="10px" fill="#2A2C34" font-family="sans-serif"> Tykwer</text></g><g class="node" transform="translate(21.73386259687925,-18.544739374740935)"><circle class="outline" cx="0" cy="0" r="25" fill="#F79767" stroke="#f36924" stroke-width="2px"/><text text-anchor="middle" pointer-events="none" font-family="sans-serif" dy="1.5625" font-size="25" fill="#FFFFFF"/><text text-anchor="middle" pointer-events="none" font-family="sans-serif" dy="1.5625" font-size="25" fill="#FFFFFF"/><text text-anchor="middle" pointer-events="none" x="0" y="0" font-size="10px" fill="#FFFFFF" font-family="sans-serif"> Cloud</text><text text-anchor="middle" pointer-events="none" x="0" y="10" font-size="10px" fill="#FFFFFF" font-family="sans-serif"> Atlas</text></g><g class="node" transform="translate(-76.49877306331986,199.47620373013672)"><circle class="outline" cx="0" cy="0" r="25" fill="#57C7E3" stroke="#23b3d7" stroke-width="2px"/><text text-anchor="middle" pointer-events="none" font-family="sans-serif" dy="1.5625" font-size="25" fill="#2A2C34"/><text text-anchor="middle" pointer-events="none" font-family="sans-serif" dy="1.5625" font-size="25" fill="#2A2C34"/><text text-anchor="middle" pointer-events="none" x="0" y="0" font-size="10px" fill="#2A2C34" font-family="sans-serif"> James</text><text text-anchor="middle" pointer-events="none" x="0" y="10" font-size="10px" fill="#2A2C34" font-family="sans-serif"> Marshall</text></g><g class="node" transform="translate(68.19727780734488,141.33311074596327)"><circle class="outline" cx="0" cy="0" r="25" fill="#F79767" stroke="#f36924" stroke-width="2px"/><text text-anchor="middle" pointer-events="none" font-family="sans-serif" dy="1.5625" font-size="25" fill="#FFFFFF"/><text text-anchor="middle" pointer-events="none" font-family="sans-serif" dy="1.5625" font-size="25" fill="#FFFFFF"/><text text-anchor="middle" pointer-events="none" x="0" y="0" font-size="10px" fill="#FFFFFF" font-family="sans-serif"> V for</text><text text-anchor="middle" pointer-events="none" x="0" y="10" font-size="10px" fill="#FFFFFF" font-family="sans-serif"> Vendetta</text></g></g></svg>