<svg xmlns="http://www.w3.org/2000/svg" width="494.71612548828125" height="346.14752197265625" viewBox="-187.37559509277344 -86.2994384765625 494.71612548828125 346.14752197265625"><title>Neo4j Graph Visualization</title><desc>Created using Neo4j (http://www.neo4j.com/)</desc><g class="layer relationships"><g class="relationship" transform="translate(152.12226627991208 201.28838620889) rotate(235.04651637486472)"><path class="outline" fill="#A5ABB6" stroke="none" d="M 25 0.5 L 38.64361089849692 0.5 L 38.64361089849692 -0.5 L 25 -0.5 Z M 84.20611089849692 0.5 L 97.84972179699383 0.5 L 97.84972179699383 3.5 L 104.84972179699383 0 L 97.84972179699383 -3.5 L 97.84972179699383 -0.5 L 84.20611089849692 -0.5 Z"/><text text-anchor="middle" pointer-events="none" font-size="8px" fill="#000000" x="61.42486089849692" y="3" transform="rotate(180 61.42486089849692 0)" font-family="sans-serif">ACTED_IN</text></g><g class="relationship" transform="translate(159.34332810664603 40.27366962730221) rotate(391.62298625445334)"><path class="outline" fill="#A5ABB6" stroke="none" d="M 25 0.5 L 36.930843105919294 0.5 L 36.930843105919294 -0.5 L 25 -0.5 Z M 82.4933431059193 0.5 L 94.42418621183859 0.5 L 94.42418621183859 3.5 L 101.42418621183859 0 L 94.42418621183859 -3.5 L 94.42418621183859 -0.5 L 82.4933431059193 -0.5 Z"/><text text-anchor="middle" pointer-events="none" font-size="8px" fill="#000000" x="59.712093105919294" y="3" font-family="sans-serif">ACTED_IN</text></g><g class="relationship" transform="translate(159.34332810664603 40.27366962730221) rotate(342.383893653481)"><path class="outline" fill="#A5ABB6" stroke="none" d="M 25 0.5 L 36.14476226526745 0.5 L 36.14476226526745 -0.5 L 25 -0.5 Z M 81.70726226526745 0.5 L 92.8520245305349 0.5 L 92.8520245305349 3.5 L 99.8520245305349 0 L 92.8520245305349 -3.5 L 92.8520245305349 -0.5 L 81.70726226526745 -0.5 Z"/><text text-anchor="middle" pointer-events="none" font-size="8px" fill="#000000" x="58.92601226526745" y="3" font-family="sans-serif">ACTED_IN</text></g><g class="relationship" transform="translate(159.34332810664603 40.27366962730221) rotate(538.9789827688362)"><path class="outline" fill="#A5ABB6" stroke="none" d="M 25 0.5 L 32.91279666625497 0.5 L 32.91279666625497 -0.5 L 25 -0.5 Z M 78.47529666625496 0.5 L 86.38809333250994 0.5 L 86.38809333250994 3.5 L 93.38809333250994 0 L 86.38809333250994 -3.5 L 86.38809333250994 -0.5 L 78.47529666625496 -0.5 Z"/><text text-anchor="middle" pointer-events="none" font-size="8px" fill="#000000" x="55.69404666625497" y="3" transform="rotate(180 55.69404666625497 0)" font-family="sans-serif">ACTED_IN</text></g><g class="relationship" transform="translate(159.34332810664603 40.27366962730221) rotate(203.85166031522124)"><path class="outline" fill="#A5ABB6" stroke="none" d="M 25 0.5 L 52.23104066941529 0.5 L 52.23104066941529 -0.5 L 25 -0.5 Z M 97.7935406694153 0.5 L 125.02458133883059 0.5 L 125.02458133883059 3.5 L 132.0245813388306 0 L 125.02458133883059 -3.5 L 125.02458133883059 -0.5 L 97.7935406694153 -0.5 Z"/><text text-anchor="middle" pointer-events="none" font-size="8px" fill="#000000" x="75.0122906694153" y="3" transform="rotate(180 75.0122906694153 0)" font-family="sans-serif">ACTED_IN</text></g><g class="relationship" transform="translate(159.34332810664603 40.27366962730221) rotate(506.22318106311525)"><path class="outline" fill="#A5ABB6" stroke="none" d="M 25 0.5 L 25.036533605636933 0.5 L 25.036533605636933 -0.5 L 25 -0.5 Z M 66.14981485563693 0.5 L 66.18634846127387 0.5 L 66.18634846127387 3.5 L 73.18634846127387 0 L 66.18634846127387 -3.5 L 66.18634846127387 -0.5 L 66.14981485563693 -0.5 Z"/><text text-anchor="middle" pointer-events="none" font-size="8px" fill="#000000" x="45.59317423063693" y="3" transform="rotate(180 45.59317423063693 0)" font-family="sans-serif">ACTED…</text></g><g class="relationship" transform="translate(130.53479528350073 -12.377868366587432) rotate(508.5566780308744)"><path class="outline" fill="#A5ABB6" stroke="none" d="M 25 0.5 L 26.20662987826961 0.5 L 26.20662987826961 -0.5 L 25 -0.5 Z M 71.76912987826961 0.5 L 72.97575975653922 0.5 L 72.97575975653922 3.5 L 79.97575975653922 0 L 72.97575975653922 -3.5 L 72.97575975653922 -0.5 L 71.76912987826961 -0.5 Z"/><text text-anchor="middle" pointer-events="none" font-size="8px" fill="#000000" x="48.98787987826961" y="3" transform="rotate(180 48.98787987826961 0)" font-family="sans-serif">ACTED_IN</text></g><g class="relationship" transform="translate(130.53479528350073 -12.377868366587432) rotate(185.39614113862922)"><path class="outline" fill="#A5ABB6" stroke="none" d="M 25 0.5 L 31.376990799351923 0.5 L 31.376990799351923 -0.5 L 25 -0.5 Z M 76.93949079935192 0.5 L 83.31648159870385 0.5 L 83.31648159870385 3.5 L 90.31648159870385 0 L 83.31648159870385 -3.5 L 83.31648159870385 -0.5 L 76.93949079935192 -0.5 Z"/><text text-anchor="middle" pointer-events="none" font-size="8px" fill="#000000" x="54.15824079935192" y="3" transform="rotate(180 54.15824079935192 0)" font-family="sans-serif">ACTED_IN</text></g><g class="relationship" transform="translate(130.53479528350073 -12.377868366587432) rotate(476.2157761983508)"><path class="outline" fill="#A5ABB6" stroke="none" d="M 25 0.5 L 33.48620226466715 0.5 L 33.48620226466715 -0.5 L 25 -0.5 Z M 79.04870226466716 0.5 L 87.5349045293343 0.5 L 87.5349045293343 3.5 L 94.5349045293343 0 L 87.5349045293343 -3.5 L 87.5349045293343 -0.5 L 79.04870226466716 -0.5 Z"/><text text-anchor="middle" pointer-events="none" font-size="8px" fill="#000000" x="56.26745226466715" y="3" transform="rotate(180 56.26745226466715 0)" font-family="sans-serif">ACTED_IN</text></g><g class="relationship" transform="translate(90.81862964774851 -57.29943293333877) rotate(476.5665492246689)"><path class="outline" fill="#A5ABB6" stroke="none" d="M 25 0.5 L 29.443790693240118 0.5 L 29.443790693240118 -0.5 L 25 -0.5 Z M 75.00629069324012 0.5 L 79.45008138648024 0.5 L 79.45008138648024 3.5 L 86.45008138648024 0 L 79.45008138648024 -3.5 L 79.45008138648024 -0.5 L 75.00629069324012 -0.5 Z"/><text text-anchor="middle" pointer-events="none" font-size="8px" fill="#000000" x="52.22504069324012" y="3" transform="rotate(180 52.22504069324012 0)" font-family="sans-serif">ACTED_IN</text></g><g class="relationship" transform="translate(90.81862964774851 -57.29943293333877) rotate(515.5904739514074)"><path class="outline" fill="#A5ABB6" stroke="none" d="M 25 0.5 L 25.173336286095292 0.5 L 25.173336286095292 -0.5 L 25 -0.5 Z M 50.28661753609529 0.5 L 50.459953822190585 0.5 L 50.459953822190585 3.5 L 57.459953822190585 0 L 50.459953822190585 -3.5 L 50.459953822190585 -0.5 L 50.28661753609529 -0.5 Z"/><text text-anchor="middle" pointer-events="none" font-size="8px" fill="#000000" x="37.72997691109529" y="3" transform="rotate(180 37.72997691109529 0)" font-family="sans-serif">AC…</text></g><g class="relationship" transform="translate(90.81862964774851 -57.29943293333877) rotate(454.9164276521128)"><path class="outline" fill="#A5ABB6" stroke="none" d="M 25 0.5 L 50.08006250095113 0.5 L 50.08006250095113 -0.5 L 25 -0.5 Z M 95.64256250095113 0.5 L 120.72262500190226 0.5 L 120.72262500190226 3.5 L 127.72262500190226 0 L 120.72262500190226 -3.5 L 120.72262500190226 -0.5 L 95.64256250095113 -0.5 Z"/><text text-anchor="middle" pointer-events="none" font-size="8px" fill="#000000" x="72.86131250095113" y="3" transform="rotate(180 72.86131250095113 0)" font-family="sans-serif">ACTED_IN</text></g><g class="relationship" transform="translate(-49.755743291245594 114.53446090946304) rotate(220.98896850506895)"><path class="outline" fill="#A5ABB6" stroke="none" d="M 25 0.5 L 32.51897462536361 0.5 L 32.51897462536361 -0.5 L 25 -0.5 Z M 78.08147462536361 0.5 L 85.60044925072722 0.5 L 85.60044925072722 3.5 L 92.60044925072722 0 L 85.60044925072722 -3.5 L 85.60044925072722 -0.5 L 78.08147462536361 -0.5 Z"/><text text-anchor="middle" pointer-events="none" font-size="8px" fill="#000000" x="55.30022462536361" y="3" transform="rotate(180 55.30022462536361 0)" font-family="sans-serif">ACTED_IN</text></g><g class="relationship" transform="translate(-49.755743291245594 114.53446090946304) rotate(519.8914648235486)"><path class="outline" fill="#A5ABB6" stroke="none" d="M 25 0.5 L 31.5541422254883 0.5 L 31.5541422254883 -0.5 L 25 -0.5 Z M 77.1166422254883 0.5 L 83.6707844509766 0.5 L 83.6707844509766 3.5 L 90.6707844509766 0 L 83.6707844509766 -3.5 L 83.6707844509766 -0.5 L 77.1166422254883 -0.5 Z"/><text text-anchor="middle" pointer-events="none" font-size="8px" fill="#000000" x="54.3353922254883" y="3" transform="rotate(180 54.3353922254883 0)" font-family="sans-serif">ACTED_IN</text></g><g class="relationship" transform="translate(-49.755743291245594 114.53446090946304) rotate(467.2003021148173)"><path class="outline" fill="#A5ABB6" stroke="none" d="M 25 0.5 L 34.598300303438215 0.5 L 34.598300303438215 -0.5 L 25 -0.5 Z M 80.16080030343821 0.5 L 89.75910060687643 0.5 L 89.75910060687643 3.5 L 96.75910060687643 0 L 89.75910060687643 -3.5 L 89.75910060687643 -0.5 L 80.16080030343821 -0.5 Z"/><text text-anchor="middle" pointer-events="none" font-size="8px" fill="#000000" x="57.379550303438215" y="3" transform="rotate(180 57.379550303438215 0)" font-family="sans-serif">ACTED_IN</text></g><g class="relationship" transform="translate(-49.755743291245594 114.53446090946304) rotate(424.1794355691339)"><path class="outline" fill="#A5ABB6" stroke="none" d="M 25 0.5 L 36.993836970909 0.5 L 36.993836970909 -0.5 L 25 -0.5 Z M 82.556336970909 0.5 L 94.550173941818 0.5 L 94.550173941818 3.5 L 101.550173941818 0 L 94.550173941818 -3.5 L 94.550173941818 -0.5 L 82.556336970909 -0.5 Z"/><text text-anchor="middle" pointer-events="none" font-size="8px" fill="#000000" x="59.775086970909" y="3" font-family="sans-serif">ACTED_IN</text></g><g class="relationship" transform="translate(-49.755743291245594 114.53446090946304) rotate(321.50715917637183)"><path class="outline" fill="#A5ABB6" stroke="none" d="M 25 0.5 L 31.679274774356173 0.5 L 31.679274774356173 -0.5 L 25 -0.5 Z M 77.24177477435617 0.5 L 83.92104954871235 0.5 L 83.92104954871235 3.5 L 90.92104954871235 0 L 83.92104954871235 -3.5 L 83.92104954871235 -0.5 L 77.24177477435617 -0.5 Z"/><text text-anchor="middle" pointer-events="none" font-size="8px" fill="#000000" x="54.46052477435617" y="3" font-family="sans-serif">ACTED_IN</text></g><g class="relationship" transform="translate(-49.755743291245594 114.53446090946304) rotate(295.4248894801076)"><path class="outline" fill="#A5ABB6" stroke="none" d="M 25 0.5 L 49.98349455010401 0.5 L 49.98349455010401 -0.5 L 25 -0.5 Z M 95.54599455010401 0.5 L 120.52948910020802 0.5 L 120.52948910020802 3.5 L 127.52948910020802 0 L 120.52948910020802 -3.5 L 120.52948910020802 -0.5 L 95.54599455010401 -0.5 Z"/><text text-anchor="middle" pointer-events="none" font-size="8px" fill="#000000" x="72.76474455010401" y="3" font-family="sans-serif">ACTED_IN</text></g><g class="relationship" transform="translate(-49.755743291245594 114.53446090946304) rotate(351.22749971153974)"><path class="outline" fill="#A5ABB6" stroke="none" d="M 25 0.5 L 38.216083833535635 0.5 L 38.216083833535635 -0.5 L 25 -0.5 Z M 83.77858383353563 0.5 L 96.99466766707127 0.5 L 96.99466766707127 3.5 L 103.99466766707127 0 L 96.99466766707127 -3.5 L 96.99466766707127 -0.5 L 83.77858383353563 -0.5 Z"/><text text-anchor="middle" pointer-events="none" font-size="8px" fill="#000000" x="60.997333833535635" y="3" font-family="sans-serif">ACTED_IN</text></g></g><g class="layer nodes"><g class="node" transform="translate(152.12226627991208,201.28838620889)"><circle class="outline" cx="0" cy="0" r="25" fill="#57C7E3" stroke="#23b3d7" stroke-width="2px"/><text text-anchor="middle" pointer-events="none" font-family="sans-serif" dy="1.5625" font-size="25" fill="#2A2C34"/><text text-anchor="middle" pointer-events="none" font-family="sans-serif" dy="1.5625" font-size="25" fill="#2A2C34"/><text text-anchor="middle" pointer-events="none" x="0" y="0" font-size="10px" fill="#2A2C34" font-family="sans-serif"> Emil</text><text text-anchor="middle" pointer-events="none" x="0" y="10" font-size="10px" fill="#2A2C34" font-family="sans-serif"> Eifrem</text></g><g class="node" transform="translate(77.7299053815129,94.86128960882753)"><circle class="outline" cx="0" cy="0" r="25" fill="#F79767" stroke="#f36924" stroke-width="2px"/><text text-anchor="middle" pointer-events="none" font-family="sans-serif" dy="1.5625" font-size="25" fill="#FFFFFF"/><text text-anchor="middle" pointer-events="none" font-family="sans-serif" dy="1.5625" font-size="25" fill="#FFFFFF"/><text text-anchor="middle" pointer-events="none" x="0" y="0" font-size="10px" fill="#FFFFFF" font-family="sans-serif"> The</text><text text-anchor="middle" pointer-events="none" x="0" y="10" font-size="10px" fill="#FFFFFF" font-family="sans-serif"> Matrix</text></g><g class="node" transform="translate(159.34332810664603,40.27366962730221)"><circle class="outline" cx="0" cy="0" r="25" fill="#57C7E3" stroke="#23b3d7" stroke-width="2px"/><text text-anchor="middle" pointer-events="none" font-family="sans-serif" dy="1.5625" font-size="25" fill="#2A2C34"/><text text-anchor="middle" pointer-events="none" font-family="sans-serif" dy="1.5625" font-size="25" fill="#2A2C34"/><text text-anchor="middle" pointer-events="none" x="0" y="0" font-size="10px" fill="#2A2C34" font-family="sans-serif"> Hugo</text><text text-anchor="middle" pointer-events="none" x="0" y="10" font-size="10px" fill="#2A2C34" font-family="sans-serif"> Weaving</text></g><g class="node" transform="translate(266.99562761470077,106.561355285754)"><circle class="outline" cx="0" cy="0" r="25" fill="#F79767" stroke="#f36924" stroke-width="2px"/><text text-anchor="middle" pointer-events="none" font-family="sans-serif" dy="1.5625" font-size="25" fill="#FFFFFF"/><text text-anchor="middle" pointer-events="none" font-family="sans-serif" dy="1.5625" font-size="25" fill="#FFFFFF"/><text text-anchor="middle" pointer-events="none" x="0" y="0" font-size="10px" fill="#FFFFFF" font-family="sans-serif"> Cloud</text><text text-anchor="middle" pointer-events="none" x="0" y="10" font-size="10px" fill="#FFFFFF" font-family="sans-serif"> Atlas</text></g><g class="node" transform="translate(278.3404957661822,2.488723969255662)"><circle class="outline" cx="0" cy="0" r="25" fill="#F79767" stroke="#f36924" stroke-width="2px"/><text text-anchor="middle" pointer-events="none" font-family="sans-serif" dy="1.5625" font-size="25" fill="#FFFFFF"/><text text-anchor="middle" pointer-events="none" font-family="sans-serif" dy="1.5625" font-size="25" fill="#FFFFFF"/><text text-anchor="middle" pointer-events="none" x="0" y="0" font-size="10px" fill="#FFFFFF" font-family="sans-serif"> V for</text><text text-anchor="middle" pointer-events="none" x="0" y="10" font-size="10px" fill="#FFFFFF" font-family="sans-serif"> Vendetta</text></g><g class="node" transform="translate(40.97403172542392,42.38324710193548)"><circle class="outline" cx="0" cy="0" r="25" fill="#F79767" stroke="#f36924" stroke-width="2px"/><text text-anchor="middle" pointer-events="none" font-family="sans-serif" dy="1.5625" font-size="25" fill="#FFFFFF"/><text text-anchor="middle" pointer-events="none" font-family="sans-serif" dy="1.5625" font-size="25" fill="#FFFFFF"/><text text-anchor="middle" pointer-events="none" font-family="sans-serif" dy="1.5625" font-size="25" fill="#FFFFFF"/><text text-anchor="middle" pointer-events="none" x="0" y="-5" font-size="10px" fill="#FFFFFF" font-family="sans-serif"> The</text><text text-anchor="middle" pointer-events="none" x="0" y="5" font-size="10px" fill="#FFFFFF" font-family="sans-serif"> Matrix</text><text text-anchor="middle" pointer-events="none" x="0" y="15" font-size="10px" fill="#FFFFFF" font-family="sans-serif"> Revol…</text></g><g class="node" transform="translate(15.7293616757986,-23.222375845108534)"><circle class="outline" cx="0" cy="0" r="25" fill="#F79767" stroke="#f36924" stroke-width="2px"/><text text-anchor="middle" pointer-events="none" font-family="sans-serif" dy="1.5625" font-size="25" fill="#FFFFFF"/><text text-anchor="middle" pointer-events="none" font-family="sans-serif" dy="1.5625" font-size="25" fill="#FFFFFF"/><text text-anchor="middle" pointer-events="none" font-family="sans-serif" dy="1.5625" font-size="25" fill="#FFFFFF"/><text text-anchor="middle" pointer-events="none" x="0" y="-5" font-size="10px" fill="#FFFFFF" font-family="sans-serif"> The</text><text text-anchor="middle" pointer-events="none" x="0" y="5" font-size="10px" fill="#FFFFFF" font-family="sans-serif"> Matrix</text><text text-anchor="middle" pointer-events="none" x="0" y="15" font-size="10px" fill="#FFFFFF" font-family="sans-serif"> Reloa…</text></g><g class="node" transform="translate(130.53479528350073,-12.377868366587432)"><circle class="outline" cx="0" cy="0" r="25" fill="#57C7E3" stroke="#23b3d7" stroke-width="2px"/><text text-anchor="middle" pointer-events="none" font-family="sans-serif" dy="1.5625" font-size="25" fill="#2A2C34"/><text text-anchor="middle" pointer-events="none" font-family="sans-serif" dy="1.5625" font-size="25" fill="#2A2C34"/><text text-anchor="middle" pointer-events="none" x="0" y="0" font-size="10px" fill="#2A2C34" font-family="sans-serif"> Laurence</text><text text-anchor="middle" pointer-events="none" x="0" y="10" font-size="10px" fill="#2A2C34" font-family="sans-serif"> Fishbur…</text></g><g class="node" transform="translate(90.81862964774851,-57.29943293333877)"><circle class="outline" cx="0" cy="0" r="25" fill="#57C7E3" stroke="#23b3d7" stroke-width="2px"/><text text-anchor="middle" pointer-events="none" font-family="sans-serif" dy="1.5625" font-size="25" fill="#2A2C34"/><text text-anchor="middle" pointer-events="none" x="0" y="5" font-size="10px" fill="#2A2C34" font-family="sans-serif"> Carrie-A…</text></g><g class="node" transform="translate(-49.755743291245594,114.53446090946304)"><circle class="outline" cx="0" cy="0" r="25" fill="#57C7E3" stroke="#23b3d7" stroke-width="2px"/><text text-anchor="middle" pointer-events="none" font-family="sans-serif" dy="1.5625" font-size="25" fill="#2A2C34"/><text text-anchor="middle" pointer-events="none" font-family="sans-serif" dy="1.5625" font-size="25" fill="#2A2C34"/><text text-anchor="middle" pointer-events="none" x="0" y="0" font-size="10px" fill="#2A2C34" font-family="sans-serif"> Keanu</text><text text-anchor="middle" pointer-events="none" x="0" y="10" font-size="10px" fill="#2A2C34" font-family="sans-serif"> Reeves</text></g><g class="node" transform="translate(-138.52478202555344,37.39871416283574)"><circle class="outline" cx="0" cy="0" r="25" fill="#F79767" stroke="#f36924" stroke-width="2px"/><text text-anchor="middle" pointer-events="none" font-family="sans-serif" dy="1.5625" font-size="25" fill="#FFFFFF"/><text text-anchor="middle" pointer-events="none" font-family="sans-serif" dy="1.5625" font-size="25" fill="#FFFFFF"/><text text-anchor="middle" pointer-events="none" x="0" y="0" font-size="10px" fill="#FFFFFF" font-family="sans-serif"> The</text><text text-anchor="middle" pointer-events="none" x="0" y="10" font-size="10px" fill="#FFFFFF" font-family="sans-serif"> Replac…</text></g><g class="node" transform="translate(-158.37558925714447,154.30202857268193)"><circle class="outline" cx="0" cy="0" r="25" fill="#F79767" stroke="#f36924" stroke-width="2px"/><text text-anchor="middle" pointer-events="none" font-family="sans-serif" dy="1.5625" font-size="25" fill="#FFFFFF"/><text text-anchor="middle" pointer-events="none" font-family="sans-serif" dy="1.5625" font-size="25" fill="#FFFFFF"/><text text-anchor="middle" pointer-events="none" x="0" y="0" font-size="10px" fill="#FFFFFF" font-family="sans-serif"> Johnny</text><text text-anchor="middle" pointer-events="none" x="0" y="10" font-size="10px" fill="#FFFFFF" font-family="sans-serif"> Mnemo…</text></g><g class="node" transform="translate(-85.76150281733788,230.84810525759903)"><circle class="outline" cx="0" cy="0" r="25" fill="#F79767" stroke="#f36924" stroke-width="2px"/><text text-anchor="middle" pointer-events="none" font-family="sans-serif" dy="1.5625" font-size="25" fill="#FFFFFF"/><text text-anchor="middle" pointer-events="none" x="0" y="5" font-size="10px" fill="#FFFFFF" font-family="sans-serif"> Somethi…</text></g><g class="node" transform="translate(5.363717880627382,228.45018205815603)"><circle class="outline" cx="0" cy="0" r="25" fill="#F79767" stroke="#f36924" stroke-width="2px"/><text text-anchor="middle" pointer-events="none" font-family="sans-serif" dy="1.5625" font-size="25" fill="#FFFFFF"/><text text-anchor="middle" pointer-events="none" font-family="sans-serif" dy="1.5625" font-size="25" fill="#FFFFFF"/><text text-anchor="middle" pointer-events="none" font-family="sans-serif" dy="1.5625" font-size="25" fill="#FFFFFF"/><text text-anchor="middle" pointer-events="none" x="0" y="-5" font-size="10px" fill="#FFFFFF" font-family="sans-serif"> The</text><text text-anchor="middle" pointer-events="none" x="0" y="5" font-size="10px" fill="#FFFFFF" font-family="sans-serif"> Devil's</text><text text-anchor="middle" pointer-events="none" x="0" y="15" font-size="10px" fill="#FFFFFF" font-family="sans-serif"> Advoc…</text></g></g></svg>