<svg xmlns="http://www.w3.org/2000/svg" width="395.9461364746094" height="154.2091064453125" viewBox="-180.38783264160156 44.82195281982422 395.9461364746094 154.2091064453125"><title>Neo4j Graph Visualization</title><desc>Created using Neo4j (http://www.neo4j.com/)</desc><g class="layer relationships"><g class="relationship" transform="translate(186.5583096345275 73.82195220324624) rotate(521.0804824417241)"><path class="outline" fill="#A5ABB6" stroke="none" d="M 21.40063509461097,12.933012701892217 L 21.90063509461097,12.06698729810778 A 56.510208117764016 56.510208117764016 0 0 0 21.96056820029174,12.101540796277398 L 21.46162877160579,12.968177655926546 A 57.510208117764016 57.510208117764016 0 0 1 21.40063509461097,12.933012701892217 Z M 75.629445939617,14.688494075570816 L 75.18650358868756,13.791943980064097 A 56.510208117764016 56.510208117764016 0 0 0 75.24850847346116,13.761263112141082 L 73.91638972063284,11.073241603975063 L 81.74257845131993,11.100989606902672 L 77.02466681056559,17.345291789695775 L 75.69254805773727,14.657270281529756 A 57.510208117764016 57.510208117764016 0 0 1 75.629445939617,14.688494075570816"/><text text-anchor="middle" pointer-events="none" font-size="8px" fill="#000000" x="48.34606362314704" y="23.109190100799495" transform="rotate(180 48.34606362314704 20.109190100799495)" font-family="sans-serif">PublicTrans…</text></g><g class="relationship" transform="translate(88.0418682985348 107.58916655303355) rotate(526.5034006607233)"><path class="outline" fill="#A5ABB6" stroke="none" d="M 25 0.5 L 41.9324749452493 0.5 L 41.9324749452493 -0.5 L 25 -0.5 Z M 61.2684124452493 0.5 L 78.2008873904986 0.5 L 78.2008873904986 3.5 L 85.2008873904986 0 L 78.2008873904986 -3.5 L 78.2008873904986 -0.5 L 61.2684124452493 -0.5 Z"/><text text-anchor="middle" pointer-events="none" font-size="8px" fill="#000000" x="51.6004436952493" y="3" transform="rotate(180 51.6004436952493 0)" font-family="sans-serif">trek</text></g><g class="relationship" transform="translate(-19.11568651386233 133.30869275942888) rotate(524.4838931963611)"><path class="outline" fill="#A5ABB6" stroke="none" d="M 25 0.5 L 55.469579942056725 0.5 L 55.469579942056725 -0.5 L 25 -0.5 Z M 74.80551744205673 0.5 L 105.27509738411345 0.5 L 105.27509738411345 3.5 L 112.27509738411345 0 L 105.27509738411345 -3.5 L 105.27509738411345 -0.5 L 74.80551744205673 -0.5 Z"/><text text-anchor="middle" pointer-events="none" font-size="8px" fill="#000000" x="65.13754869205673" y="3" transform="rotate(180 65.13754869205673 0)" font-family="sans-serif">trek</text></g><g class="relationship" transform="translate(186.5583096345275 73.82195220324624) rotate(521.0804824417241)"><path class="outline" fill="#A5ABB6" stroke="none" d="M 25 0.5 L 38.90341009301839 0.5 L 38.90341009301839 -0.5 L 25 -0.5 Z M 58.23934759301839 0.5 L 72.14275768603677 0.5 L 72.14275768603677 3.5 L 79.14275768603677 0 L 72.14275768603677 -3.5 L 72.14275768603677 -0.5 L 58.23934759301839 -0.5 Z"/><text text-anchor="middle" pointer-events="none" font-size="8px" fill="#000000" x="48.57137884301839" y="3" transform="rotate(180 48.57137884301839 0)" font-family="sans-serif">trek</text></g><g class="relationship" transform="translate(186.5583096345275 73.82195220324624) rotate(521.0804824417241)"><path class="outline" fill="#A5ABB6" stroke="none" d="M 21.40063509461097,-12.933012701892217 L 21.90063509461097,-12.06698729810778 A 56.510208117764016 56.510208117764016 0 0 1 37.55902356175697,-18.21606214930396 L 37.33611311758581,-19.19090107645009 A 57.510208117764016 57.510208117764016 0 0 0 21.40063509461097,-12.933012701892217 Z M 59.392095601077834,-19.89137731495255 L 59.231491827419575,-18.904358354705728 A 56.510208117764016 56.510208117764016 0 0 1 75.24850847346116,-13.761263112141082 L 73.91638972063284,-11.073241603975063 L 81.74257845131993,-11.100989606902672 L 77.02466681056559,-17.345291789695775 L 75.69254805773727,-14.657270281529756 A 57.510208117764016 57.510208117764016 0 0 0 59.392095601077834,-19.89137731495255"/><text text-anchor="middle" pointer-events="none" font-size="8px" fill="#000000" x="48.34606362314703" y="-17.109190100799495" transform="rotate(180 48.34606362314703 -20.109190100799495)" font-family="sans-serif">road</text></g></g><g class="layer nodes"><g class="node" transform="translate(186.5583096345275,73.82195220324624)"><circle class="outline" cx="0" cy="0" r="25" fill="#F79767" stroke="#f36924" stroke-width="2px"/><text text-anchor="middle" pointer-events="none" font-family="sans-serif" dy="1.5625" font-size="25" fill="#FFFFFF"/><text text-anchor="middle" pointer-events="none" x="0" y="5" font-size="10px" fill="#FFFFFF" font-family="sans-serif"> Darjeeling</text></g><g class="node" transform="translate(-151.3878327764735,170.03105222747283)"><circle class="outline" cx="0" cy="0" r="25" fill="#57C7E3" stroke="#23b3d7" stroke-width="2px"/><text text-anchor="middle" pointer-events="none" font-family="sans-serif" dy="1.5625" font-size="25" fill="#2A2C34"/><text text-anchor="middle" pointer-events="none" x="0" y="5" font-size="10px" fill="#2A2C34" font-family="sans-serif"> Sandak…</text></g><g class="node" transform="translate(88.0418682985348,107.58916655303355)"><circle class="outline" cx="0" cy="0" r="25" fill="#F79767" stroke="#f36924" stroke-width="2px"/><text text-anchor="middle" pointer-events="none" font-family="sans-serif" dy="1.5625" font-size="25" fill="#FFFFFF"/><text text-anchor="middle" pointer-events="none" x="0" y="5" font-size="10px" fill="#FFFFFF" font-family="sans-serif"> Rimbik</text></g><g class="node" transform="translate(-19.11568651386233,133.30869275942888)"><circle class="outline" cx="0" cy="0" r="25" fill="#F16667" stroke="#eb2728" stroke-width="2px"/><text text-anchor="middle" pointer-events="none" font-family="sans-serif" dy="1.5625" font-size="25" fill="#FFFFFF"/><text text-anchor="middle" pointer-events="none" x="0" y="5" font-size="10px" fill="#FFFFFF" font-family="sans-serif"> BhikeBh…</text></g></g></svg>